<mxfile host="app.diagrams.net" modified="2024-03-21T18:33:48.952Z" agent="Mozilla/5.0 (Windows NT 10.0; Win64; x64; rv:124.0) Gecko/20100101 Firefox/124.0" etag="9Gk3cH8JbcK6YQMHSZMY" version="24.0.7" type="github">
  <diagram name="Page-1" id="L1FjgBwMozQ6Us8v5sE2">
    <mxGraphModel dx="794" dy="422" grid="1" gridSize="10" guides="1" tooltips="1" connect="1" arrows="1" fold="1" page="1" pageScale="1" pageWidth="850" pageHeight="1100" math="0" shadow="0">
      <root>
        <mxCell id="0" />
        <mxCell id="1" parent="0" />
        <mxCell id="9S_6TezDdUrS7J8Zfk-Y-1" value="Operador" style="shape=umlActor;verticalLabelPosition=bottom;verticalAlign=top;html=1;" vertex="1" parent="1">
          <mxGeometry x="140" y="150" width="30" height="60" as="geometry" />
        </mxCell>
        <mxCell id="9S_6TezDdUrS7J8Zfk-Y-2" value="CU_1" style="shape=umlFrame;whiteSpace=wrap;html=1;pointerEvents=0;" vertex="1" parent="1">
          <mxGeometry x="230" y="10" width="490" height="380" as="geometry" />
        </mxCell>
        <mxCell id="9S_6TezDdUrS7J8Zfk-Y-3" value="&lt;div&gt;Recibe&lt;/div&gt;&lt;div&gt;Contrato&lt;br&gt;&lt;/div&gt;" style="ellipse;whiteSpace=wrap;html=1;" vertex="1" parent="1">
          <mxGeometry x="300" y="50" width="140" height="70" as="geometry" />
        </mxCell>
        <mxCell id="9S_6TezDdUrS7J8Zfk-Y-5" value="" style="endArrow=none;html=1;rounded=0;exitX=0.633;exitY=0.7;exitDx=0;exitDy=0;exitPerimeter=0;entryX=0.057;entryY=0.743;entryDx=0;entryDy=0;entryPerimeter=0;" edge="1" parent="1" source="9S_6TezDdUrS7J8Zfk-Y-1" target="9S_6TezDdUrS7J8Zfk-Y-3">
          <mxGeometry width="50" height="50" relative="1" as="geometry">
            <mxPoint x="380" y="240" as="sourcePoint" />
            <mxPoint x="430" y="190" as="targetPoint" />
          </mxGeometry>
        </mxCell>
        <mxCell id="9S_6TezDdUrS7J8Zfk-Y-6" value="&lt;div&gt;Selecciona &lt;br&gt;&lt;/div&gt;&lt;div&gt;Ruta&lt;br&gt;&lt;/div&gt;" style="ellipse;whiteSpace=wrap;html=1;" vertex="1" parent="1">
          <mxGeometry x="310" y="130" width="140" height="70" as="geometry" />
        </mxCell>
        <mxCell id="9S_6TezDdUrS7J8Zfk-Y-7" value="" style="endArrow=none;html=1;rounded=0;exitX=0.833;exitY=0.783;exitDx=0;exitDy=0;exitPerimeter=0;" edge="1" parent="1" source="9S_6TezDdUrS7J8Zfk-Y-1" target="9S_6TezDdUrS7J8Zfk-Y-6">
          <mxGeometry width="50" height="50" relative="1" as="geometry">
            <mxPoint x="169" y="202" as="sourcePoint" />
            <mxPoint x="328" y="172" as="targetPoint" />
          </mxGeometry>
        </mxCell>
        <mxCell id="9S_6TezDdUrS7J8Zfk-Y-8" value="&lt;div&gt;Solicita Predicción&lt;/div&gt;&lt;div&gt;consumo&lt;br&gt;&lt;/div&gt;" style="ellipse;whiteSpace=wrap;html=1;" vertex="1" parent="1">
          <mxGeometry x="320" y="210" width="140" height="70" as="geometry" />
        </mxCell>
        <mxCell id="9S_6TezDdUrS7J8Zfk-Y-9" value="" style="endArrow=none;html=1;rounded=0;exitX=0.833;exitY=0.783;exitDx=0;exitDy=0;exitPerimeter=0;" edge="1" parent="1" target="9S_6TezDdUrS7J8Zfk-Y-8">
          <mxGeometry width="50" height="50" relative="1" as="geometry">
            <mxPoint x="175" y="207" as="sourcePoint" />
            <mxPoint x="323" y="185" as="targetPoint" />
          </mxGeometry>
        </mxCell>
        <mxCell id="9S_6TezDdUrS7J8Zfk-Y-10" value="&lt;div&gt;Solicita Predicción&lt;/div&gt;&lt;div&gt;Certificado CII&lt;br&gt;&lt;/div&gt;" style="ellipse;whiteSpace=wrap;html=1;" vertex="1" parent="1">
          <mxGeometry x="330" y="290" width="140" height="70" as="geometry" />
        </mxCell>
        <mxCell id="9S_6TezDdUrS7J8Zfk-Y-11" value="" style="endArrow=none;html=1;rounded=0;exitX=0.833;exitY=0.783;exitDx=0;exitDy=0;exitPerimeter=0;" edge="1" parent="1" target="9S_6TezDdUrS7J8Zfk-Y-10">
          <mxGeometry width="50" height="50" relative="1" as="geometry">
            <mxPoint x="185" y="217" as="sourcePoint" />
            <mxPoint x="334" y="243" as="targetPoint" />
          </mxGeometry>
        </mxCell>
        <mxCell id="9S_6TezDdUrS7J8Zfk-Y-13" value="&lt;div&gt;Sistema&amp;nbsp;&lt;/div&gt;&lt;div&gt;Navegación&lt;/div&gt;&lt;div&gt;(Externo al Sistema)&lt;br&gt;&lt;/div&gt;" style="shape=umlActor;verticalLabelPosition=bottom;verticalAlign=top;html=1;outlineConnect=0;" vertex="1" parent="1">
          <mxGeometry x="760" y="160" width="30" height="60" as="geometry" />
        </mxCell>
        <mxCell id="9S_6TezDdUrS7J8Zfk-Y-17" value="" style="endArrow=none;html=1;rounded=0;" edge="1" parent="1" source="9S_6TezDdUrS7J8Zfk-Y-6" target="9S_6TezDdUrS7J8Zfk-Y-13">
          <mxGeometry width="50" height="50" relative="1" as="geometry">
            <mxPoint x="169" y="202" as="sourcePoint" />
            <mxPoint x="318" y="112" as="targetPoint" />
          </mxGeometry>
        </mxCell>
      </root>
    </mxGraphModel>
  </diagram>
</mxfile>
